solid OpenSCAD_Model
  facet normal -1 0 0
    outer loop
      vertex -0.5 130.5 -1
      vertex -0.5 9.5 0
      vertex -0.5 130.5 10
    endloop
  endfacet
  facet normal -1 0 0
    outer loop
      vertex -0.5 -0.5 -1
      vertex -0.5 9.5 0
      vertex -0.5 130.5 -1
    endloop
  endfacet
  facet normal -1 -0 0
    outer loop
      vertex -0.5 9.5 0
      vertex -0.5 -0.5 -1
      vertex -0.5 0.5 0
    endloop
  endfacet
  facet normal -1 0 0
    outer loop
      vertex -0.5 -0.5 10
      vertex -0.5 0.5 0
      vertex -0.5 -0.5 -1
    endloop
  endfacet
  facet normal -1 0 0
    outer loop
      vertex -0.5 0.5 0
      vertex -0.5 -0.5 10
      vertex -0.5 0.5 10
    endloop
  endfacet
  facet normal -1 -0 0
    outer loop
      vertex -0.5 130.5 10
      vertex -0.5 9.5 0
      vertex -0.5 9.5 10
    endloop
  endfacet
  facet normal 0 0 1
    outer loop
      vertex 0.5 9.5 0
      vertex 129.5 129.5 0
      vertex 0.5 129.5 0
    endloop
  endfacet
  facet normal 0 0 1
    outer loop
      vertex 129.5 129.5 0
      vertex 0.5 9.5 0
      vertex 129.5 0.5 0
    endloop
  endfacet
  facet normal 0 0 1
    outer loop
      vertex -0.5 0.5 0
      vertex 0.5 9.5 0
      vertex -0.5 9.5 0
    endloop
  endfacet
  facet normal 0 0 1
    outer loop
      vertex 0.5 9.5 0
      vertex -0.5 0.5 0
      vertex 129.5 0.5 0
    endloop
  endfacet
  facet normal 1 -0 0
    outer loop
      vertex 130.5 -0.5 10
      vertex 130.5 130.5 -1
      vertex 130.5 130.5 10
    endloop
  endfacet
  facet normal 1 0 0
    outer loop
      vertex 130.5 130.5 -1
      vertex 130.5 -0.5 10
      vertex 130.5 -0.5 -1
    endloop
  endfacet
  facet normal 0 1 -0
    outer loop
      vertex 130.5 130.5 -1
      vertex -0.5 130.5 10
      vertex 130.5 130.5 10
    endloop
  endfacet
  facet normal 0 1 0
    outer loop
      vertex -0.5 130.5 10
      vertex 130.5 130.5 -1
      vertex -0.5 130.5 -1
    endloop
  endfacet
  facet normal 0 0 -1
    outer loop
      vertex -0.5 -0.5 -1
      vertex 130.5 130.5 -1
      vertex 130.5 -0.5 -1
    endloop
  endfacet
  facet normal -0 0 -1
    outer loop
      vertex 130.5 130.5 -1
      vertex -0.5 -0.5 -1
      vertex -0.5 130.5 -1
    endloop
  endfacet
  facet normal 0 -1 0
    outer loop
      vertex -0.5 -0.5 -1
      vertex 130.5 -0.5 10
      vertex -0.5 -0.5 10
    endloop
  endfacet
  facet normal 0 -1 -0
    outer loop
      vertex 130.5 -0.5 10
      vertex -0.5 -0.5 -1
      vertex 130.5 -0.5 -1
    endloop
  endfacet
  facet normal 0 0 1
    outer loop
      vertex 130.5 130.5 10
      vertex 129.5 129.5 10
      vertex 130.5 -0.5 10
    endloop
  endfacet
  facet normal 0 0 1
    outer loop
      vertex 130.5 130.5 10
      vertex 0.5 129.5 10
      vertex 129.5 129.5 10
    endloop
  endfacet
  facet normal -0 0 1
    outer loop
      vertex -0.5 130.5 10
      vertex 0.5 129.5 10
      vertex 130.5 130.5 10
    endloop
  endfacet
  facet normal 0 0 1
    outer loop
      vertex -0.5 9.5 10
      vertex 0.5 129.5 10
      vertex -0.5 130.5 10
    endloop
  endfacet
  facet normal 0 0 1
    outer loop
      vertex 0.5 129.5 10
      vertex -0.5 9.5 10
      vertex 0.5 9.5 10
    endloop
  endfacet
  facet normal -0 0 1
    outer loop
      vertex 129.5 0.5 10
      vertex 130.5 -0.5 10
      vertex 129.5 129.5 10
    endloop
  endfacet
  facet normal 0 0 1
    outer loop
      vertex -0.5 -0.5 10
      vertex 129.5 0.5 10
      vertex -0.5 0.5 10
    endloop
  endfacet
  facet normal 0 0 1
    outer loop
      vertex 129.5 0.5 10
      vertex -0.5 -0.5 10
      vertex 130.5 -0.5 10
    endloop
  endfacet
  facet normal 0 -1 0
    outer loop
      vertex -0.5 9.5 0
      vertex 0.5 9.5 10
      vertex -0.5 9.5 10
    endloop
  endfacet
  facet normal 0 -1 -0
    outer loop
      vertex 0.5 9.5 10
      vertex -0.5 9.5 0
      vertex 0.5 9.5 0
    endloop
  endfacet
  facet normal 1 -0 0
    outer loop
      vertex 0.5 9.5 10
      vertex 0.5 129.5 0
      vertex 0.5 129.5 10
    endloop
  endfacet
  facet normal 1 0 0
    outer loop
      vertex 0.5 129.5 0
      vertex 0.5 9.5 10
      vertex 0.5 9.5 0
    endloop
  endfacet
  facet normal -1 0 0
    outer loop
      vertex 129.5 0.5 0
      vertex 129.5 129.5 10
      vertex 129.5 129.5 0
    endloop
  endfacet
  facet normal -1 -0 0
    outer loop
      vertex 129.5 129.5 10
      vertex 129.5 0.5 0
      vertex 129.5 0.5 10
    endloop
  endfacet
  facet normal 0 1 -0
    outer loop
      vertex 129.5 0.5 0
      vertex -0.5 0.5 10
      vertex 129.5 0.5 10
    endloop
  endfacet
  facet normal 0 1 0
    outer loop
      vertex -0.5 0.5 10
      vertex 129.5 0.5 0
      vertex -0.5 0.5 0
    endloop
  endfacet
  facet normal 0 -1 0
    outer loop
      vertex 0.5 129.5 0
      vertex 129.5 129.5 10
      vertex 0.5 129.5 10
    endloop
  endfacet
  facet normal 0 -1 -0
    outer loop
      vertex 129.5 129.5 10
      vertex 0.5 129.5 0
      vertex 129.5 129.5 0
    endloop
  endfacet
endsolid OpenSCAD_Model
